<svg width="24" height="24" viewBox="0 0 24 24" fill="none" xmlns="http://www.w3.org/2000/svg">
<path d="M11.998 19.25C12.4123 19.25 12.748 19.5858 12.748 20V22C12.748 22.4142 12.4123 22.75 11.998 22.75C11.5839 22.7499 11.248 22.4142 11.248 22V20C11.248 19.5858 11.5839 19.2501 11.998 19.25ZM16.9697 16.9707C17.2626 16.6778 17.7374 16.6778 18.0303 16.9707L19.5303 18.4707C19.8232 18.7636 19.8232 19.2384 19.5303 19.5312C19.2374 19.8241 18.7626 19.8241 18.4697 19.5312L16.9697 18.0312C16.6768 17.7384 16.6768 17.2636 16.9697 16.9707ZM5.96973 16.9697C6.26262 16.6768 6.73738 16.6768 7.03027 16.9697C7.32317 17.2626 7.32317 17.7374 7.03027 18.0303L5.53027 19.5303C5.23738 19.8232 4.76262 19.8232 4.46973 19.5303C4.17683 19.2374 4.17683 18.7626 4.46973 18.4697L5.96973 16.9697ZM12 6.25C15.1756 6.25 17.75 8.82436 17.75 12C17.75 15.1756 15.1756 17.75 12 17.75C8.82436 17.75 6.25 15.1756 6.25 12C6.25 8.82436 8.82436 6.25 12 6.25ZM12 7.75C9.65279 7.75 7.75 9.65279 7.75 12C7.75 14.3472 9.65279 16.25 12 16.25C14.3472 16.25 16.25 14.3472 16.25 12C16.25 9.65279 14.3472 7.75 12 7.75ZM4 11.25C4.41421 11.25 4.74999 11.5858 4.75 12C4.75 12.4142 4.41421 12.75 4 12.75H2C1.58579 12.75 1.25 12.4142 1.25 12C1.25001 11.5858 1.58579 11.25 2 11.25H4ZM22 11.25C22.4142 11.25 22.75 11.5858 22.75 12C22.75 12.4142 22.4142 12.75 22 12.75H20C19.5858 12.75 19.25 12.4142 19.25 12C19.25 11.5858 19.5858 11.25 20 11.25H22ZM4.46973 4.4707C4.76262 4.17781 5.23738 4.17781 5.53027 4.4707L7.0293 5.96973C7.32219 6.26262 7.32219 6.73738 7.0293 7.03027C6.7364 7.32317 6.26164 7.32317 5.96875 7.03027L4.46973 5.53125C4.17683 5.23836 4.17683 4.7636 4.46973 4.4707ZM18.4678 4.4707C18.7607 4.17781 19.2354 4.17782 19.5283 4.4707C19.8212 4.7636 19.8212 5.23836 19.5283 5.53125L18.0293 7.03027C17.7364 7.32316 17.2616 7.32316 16.9688 7.03027C16.6759 6.73738 16.6759 6.26262 16.9688 5.96973L18.4678 4.4707ZM11.998 1.25C12.4123 1.25 12.748 1.58579 12.748 2V4C12.748 4.41421 12.4123 4.75 11.998 4.75C11.5839 4.74994 11.248 4.41418 11.248 4V2C11.248 1.58582 11.5839 1.25006 11.998 1.25Z" fill="#ED6B4C"/>
</svg>
