<svg width="30" height="30" viewBox="0 0 30 30" fill="none" xmlns="http://www.w3.org/2000/svg">
<path d="M12.5703 1.5625C14.8675 1.56248 16.6873 1.56245 18.1113 1.75391C19.5768 1.95094 20.7628 2.36631 21.6982 3.30176C22.5802 4.18371 22.9958 5.28895 23.2061 6.64062C24.6235 6.84539 25.7756 7.26491 26.6895 8.17871C27.6295 9.11879 28.0469 10.311 28.2451 11.7852C28.4377 13.2179 28.4375 15.0491 28.4375 17.3613V17.502C28.4375 19.8142 28.4377 21.6454 28.2451 23.0781C28.0469 24.5523 27.6295 25.7445 26.6895 26.6846C25.7494 27.6247 24.5571 28.042 23.083 28.2402C21.6503 28.4329 19.8191 28.4326 17.5068 28.4326H17.3662C15.054 28.4326 13.2227 28.4329 11.79 28.2402C10.3159 28.042 9.12368 27.6247 8.18359 26.6846C7.27103 25.772 6.85057 24.6219 6.64551 23.207C5.2916 22.9971 4.18478 22.5813 3.30176 21.6982C2.36631 20.7628 1.95094 19.5768 1.75391 18.1113C1.56245 16.6873 1.56248 14.8675 1.5625 12.5703V12.4297C1.56248 10.1325 1.56245 8.31269 1.75391 6.88867C1.95094 5.42317 2.36631 4.2372 3.30176 3.30176C4.2372 2.36631 5.42317 1.95094 6.88867 1.75391C8.31269 1.56245 10.1325 1.56248 12.4297 1.5625H12.5703ZM23.3857 8.57129C23.4365 9.6747 23.4375 10.9537 23.4375 12.4297V12.5703C23.4375 14.8675 23.4375 16.6873 23.2461 18.1113C23.0491 19.5768 22.6337 20.7628 21.6982 21.6982C20.7628 22.6337 19.5768 23.0491 18.1113 23.2461C16.6873 23.4375 14.8675 23.4375 12.5703 23.4375H12.4297C10.9563 23.4375 9.67923 23.4363 8.57715 23.3857C8.76157 24.3191 9.05993 24.9086 9.50977 25.3584C10.0434 25.8921 10.7738 26.2116 12.04 26.3818C13.3333 26.5557 15.038 26.5576 17.4365 26.5576C19.8351 26.5576 21.5397 26.5557 22.833 26.3818C24.0993 26.2116 24.8296 25.8921 25.3633 25.3584C25.897 24.8247 26.2165 24.0944 26.3867 22.8281C26.5606 21.5349 26.5625 19.8302 26.5625 17.4316C26.5625 15.0331 26.5606 13.3284 26.3867 12.0352C26.2165 10.7689 25.897 10.0386 25.3633 9.50488C24.9126 9.05426 24.3219 8.75564 23.3857 8.57129ZM4.83887 14.6904C4.37427 14.6894 3.91004 14.708 3.44824 14.7441C3.46242 16.0097 3.49955 17.0226 3.6123 17.8613C3.78139 19.1189 4.09794 19.844 4.62695 20.373C5.15597 20.9021 5.88106 21.2186 7.13867 21.3877C8.42324 21.5604 10.1165 21.5625 12.5 21.5625C14.5758 21.5625 16.128 21.5608 17.3428 21.4463C16.5467 19.7719 15.2204 18.2596 13.4473 17.084C11.1923 15.5889 8.37534 14.7426 5.44531 14.6904H4.83887ZM12.5 3.4375C10.1165 3.4375 8.42324 3.43961 7.13867 3.6123C5.88106 3.78139 5.15597 4.09794 4.62695 4.62695C4.09794 5.15597 3.78139 5.88106 3.6123 7.13867C3.43961 8.42324 3.4375 10.1165 3.4375 12.5C3.4375 12.6236 3.43747 12.7453 3.4375 12.8652C3.90141 12.8323 4.36696 12.8146 4.83301 12.8154C8.31996 12.7528 11.7392 13.7029 14.4824 15.5215C16.6542 16.9614 18.3018 18.8837 19.2305 21.0732C19.7132 20.8983 20.0749 20.6711 20.373 20.373C20.9021 19.844 21.2186 19.1189 21.3877 17.8613C21.5604 16.5768 21.5625 14.8835 21.5625 12.5C21.5625 10.1165 21.5604 8.42324 21.3877 7.13867C21.2186 5.88106 20.9021 5.15597 20.373 4.62695C19.844 4.09794 19.1189 3.78139 17.8613 3.6123C16.5768 3.43961 14.8835 3.4375 12.5 3.4375ZM16.2607 7.5C16.9511 7.5 17.5107 8.05964 17.5107 8.75C17.5107 9.44036 16.9511 10 16.2607 10H16.25C15.5596 10 15 9.44036 15 8.75C15 8.05964 15.5596 7.5 16.25 7.5H16.2607Z" fill="#1E1E1E"/>
</svg>
